<svg preserveAspectRatio="none" width="100%" height="100%" overflow="visible" style="display: block;" viewBox="0 0 32 32" fill="none" xmlns="http://www.w3.org/2000/svg">
<g id="Container">
<path id="Icon" d="M16 28C19.3333 28 22.15 26.8333 24.45 24.5C26.75 22.1667 27.9333 19.3333 28 16V4H16C12.6667 4.06667 9.83333 5.25 7.5 7.55C5.16667 9.85 4 12.6667 4 16C4 19.3333 5.16667 22.1667 7.5 24.5C9.83333 26.8333 12.6667 28 16 28V28M13.65 24.65L22.85 16.45C23.15 16.1833 23.2333 15.8667 23.1 15.5C22.9667 15.1333 22.7 14.9167 22.3 14.85L15.1 14.15L19.4 8.2C19.5 8.03333 19.5583 7.875 19.575 7.725C19.5917 7.575 19.5333 7.43333 19.4 7.3C19.2667 7.13333 19.1 7.05833 18.9 7.075C18.7 7.09167 18.5167 7.16667 18.35 7.3L9.2 15.5C8.9 15.7667 8.81667 16.0833 8.95 16.45C9.08333 16.8167 9.35 17.0333 9.75 17.1L16.95 17.8L12.6 23.75C12.5 23.9167 12.45 24.075 12.45 24.225C12.45 24.375 12.5167 24.5167 12.65 24.65C12.7833 24.7833 12.9417 24.85 13.125 24.85C13.3083 24.85 13.4833 24.7833 13.65 24.65V24.65M16 32C14.1333 32 12.375 31.7083 10.725 31.125C9.075 30.5417 7.56667 29.7167 6.2 28.65L3.45 31.4C3.25 31.6 3.025 31.75 2.775 31.85C2.525 31.95 2.26667 32 2 32C1.43333 32 0.958333 31.8083 0.575 31.425C0.191667 31.0417 0 30.5667 0 30C0 29.7333 0.05 29.475 0.15 29.225C0.25 28.975 0.4 28.75 0.6 28.55L3.35 25.8C2.28333 24.4333 1.45833 22.925 0.875 21.275C0.291667 19.625 0 17.8667 0 16C0 11.5333 1.55 7.75 4.65 4.65C7.75 1.55 11.5333 0 16 0H32V16C32 20.4667 30.45 24.25 27.35 27.35C24.25 30.45 20.4667 32 16 32V32M16 16V16V16V16V16V16V16V16V16V16" fill="var(--fill-0, #00090B)"/>
</g>
</svg>
