<svg preserveAspectRatio="none" width="100%" height="100%" overflow="visible" style="display: block;" viewBox="0 0 34 55" fill="none" xmlns="http://www.w3.org/2000/svg">
<g id="Container">
<path id="Icon" d="M4.25 45C3.08125 45 2.08073 44.5594 1.24844 43.6781C0.416146 42.7969 0 41.7375 0 40.5V4.5C0 3.2625 0.416146 2.20313 1.24844 1.32188C2.08073 0.440625 3.08125 0 4.25 0H34V4.5H29.75V9C29.75 9.6375 29.5464 10.1719 29.1391 10.6031C28.7318 11.0344 28.2271 11.25 27.625 11.25H10.625C10.0229 11.25 9.51823 11.0344 9.11094 10.6031C8.70365 10.1719 8.5 9.6375 8.5 9V4.5H4.25V40.5H12.8563C11.5104 39.4875 10.4479 38.2031 9.66875 36.6469C8.88958 35.0906 8.5 33.375 8.5 31.5V20.25H29.75V31.5C29.75 33.375 29.3604 35.0906 28.5812 36.6469C27.8021 38.2031 26.7396 39.4875 25.3937 40.5H34V45H4.25ZM19.125 38.25C20.8958 38.25 22.401 37.5938 23.6406 36.2812C24.8802 34.9688 25.5 33.375 25.5 31.5V24.75H12.75V31.5C12.75 33.375 13.3698 34.9688 14.6094 36.2812C15.849 37.5938 17.3542 38.25 19.125 38.25ZM19.125 18C19.7271 18 20.2318 17.7844 20.6391 17.3531C21.0464 16.9219 21.25 16.3875 21.25 15.75C21.25 15.1125 21.0464 14.5781 20.6391 14.1469C20.2318 13.7156 19.7271 13.5 19.125 13.5C18.5229 13.5 18.0182 13.7156 17.6109 14.1469C17.2036 14.5781 17 15.1125 17 15.75C17 16.3875 17.2036 16.9219 17.6109 17.3531C18.0182 17.7844 18.5229 18 19.125 18Z" fill="var(--fill-0, black)"/>
</g>
</svg>
